<svg width="1746" height="1038" xmlns="http://www.w3.org/2000/svg"><g stroke-width="51" fill="none" stroke-linecap="round" stroke-linejoin="round"><path d="M231 256l35.795 82.786" stroke="#121E29" opacity=".9"/><path d="M596.362 245l35.796 82.786M973 223l35.795 82.786" stroke="#0D1924" opacity=".9"/><path d="M438 158l67.5-75.5" stroke="#152636" opacity=".9"/><path d="M67.5 158L135 82.5M438 550l67.5-75.5M858 553l67.5-75.5M844 158l67.5-75.5M1199 168l67.5-75.5" stroke="#0D1924" opacity=".9"/><path d="M1360 508l67.5-75.5" stroke="#FD7341" fill="#D8D8D8"/><path d="M1550 531l67.5-75.5M216 629l35.795 82.786M596.782 629l35.796 82.786m362.14-71.286l99.077-56.714M1344 627l35.795 82.786M1548.06 709l35.796 82.786" stroke="#0D1924" opacity=".9"/><path d="M1332 245l35.795 82.786" stroke="#152636" opacity=".9"/><path d="M84 245l35.795 82.786M1548 26l35.795 82.786" stroke="#0D1924" opacity=".9"/><path stroke="#0D1822" d="M265 447h81.64v80.27"/><path stroke="#152636" opacity=".9" d="M26 447h81.64v80.27"/><path stroke="#0D1924" opacity=".9" d="M643 447h81.64v80.27"/><path stroke="#142333" d="M998 404h81.64v80.27"/><path stroke="#0D1924" opacity=".9" d="M482.213 267l18.365 79.548-78.213 18.057"/><path stroke="#152636" opacity=".9" d="M859.213 267l18.365 79.548-78.213 18.057"/><path stroke="#0D1924" opacity=".9" d="M495.213 709l18.365 79.548-78.213 18.057"/><path stroke="#FFE68E" d="M1212.213 642l18.365 79.548-78.213 18.057"/><path stroke="#0D1924" opacity=".9" d="M842.213 637l18.365 79.548-78.213 18.057"/><path stroke="#3BBC97" opacity=".9" d="M1218.213 267l18.365 79.548-78.213 18.057"/><path stroke="#0D1924" opacity=".9" d="M1028 112.702L1068.82 42l69.516 40.135m441.145 252.567l40.82-70.702 69.516 40.135M643 67h81.64v80.27M252 67h81.64v80.27"/><path stroke="#4168FD" d="M1373 89h81.64v80.27"/><path d="M438 958l67.5-75.5" stroke="#152636" opacity=".9"/><path d="M249 943l67.5-75.5M1064 958l67.5-75.5M1199 968l67.5-75.5M898 882.702L938.82 812l69.516 40.135M1600 962.702L1640.82 892l69.516 40.135M643 827h81.64v80.27M79 765h81.64v80.27M80.285 986.53l2.849-81.59 80.221 2.8" stroke="#0D1924" opacity=".9"/><path stroke="#152636" opacity=".9" d="M1325 856h81.64v80.27"/><path stroke="#0D1924" opacity=".9" d="M1173 468h81.64v80.27M348 275.923L363.639 259"/><path d="M376 662.923L391.639 646" stroke="#121E29" opacity=".9"/><path d="M107.94 645.923L123.577 629M725 645.923L740.639 629" stroke="#0D1924" opacity=".9"/><path d="M1152 569.923L1167.639 553" stroke="#0D1924" opacity=".2"/><path d="M1455 645.923L1470.639 629" stroke="#152636" opacity=".9"/><path d="M725 283.923L740.639 267M1512 872.923L1527.639 856M1102 283.923L1117.639 267M1618 628.086l15.639-16.924M1471 283.923L1486.639 267" stroke="#0D1924" opacity=".9"/></g></svg>