<?xml version="1.0" encoding="utf-8"?>
<!-- Generator: Adobe Illustrator 21.1.0, SVG Export Plug-In . SVG Version: 6.00 Build 0)  -->
<svg version="1.1" id="Calque_1" xmlns="http://www.w3.org/2000/svg" xmlns:xlink="http://www.w3.org/1999/xlink" x="0px" y="0px"
	 viewBox="0 0 200 200" style="enable-background:new 0 0 200 200;" xml:space="preserve">
<style type="text/css">
	.st0{fill:#00AD88;}
	.st1{fill:none;stroke:#FFFFFF;stroke-width:10;stroke-miterlimit:10;}
</style>
<g>
	<g>
		<g>
			<path class="st0" d="M124.9,26.8c-19.2,0-34.8,15.6-34.8,34.8c0,33.2,34.8,76.5,34.8,76.5s34.8-43.3,34.8-76.5
				C159.7,42.3,144.1,26.8,124.9,26.8z M124.9,80.7c-10.4,0-18.8-8.4-18.8-18.8s8.4-18.8,18.8-18.8s18.8,8.4,18.8,18.8
				S135.3,80.7,124.9,80.7z"/>
		</g>
	</g>
</g>
<g>
	<g>
		<g>
			<path class="st1" d="M99.9,38.8c-19.2,0-34.8,15.6-34.8,34.8c0,33.2,34.8,76.5,34.8,76.5s34.8-43.3,34.8-76.5
				C134.7,54.3,119.1,38.8,99.9,38.8z M99.9,92.7c-10.4,0-18.8-8.4-18.8-18.8s8.4-18.8,18.8-18.8s18.8,8.4,18.8,18.8
				S110.3,92.7,99.9,92.7z"/>
		</g>
	</g>
</g>
</svg>
