<?xml version="1.0" encoding="utf-8"?>
<!-- Generator: Adobe Illustrator 21.1.0, SVG Export Plug-In . SVG Version: 6.00 Build 0)  -->
<svg version="1.1" id="Calque_1" xmlns="http://www.w3.org/2000/svg" xmlns:xlink="http://www.w3.org/1999/xlink" x="0px" y="0px"
	 viewBox="0 0 200 200" style="enable-background:new 0 0 200 200;" xml:space="preserve">
<style type="text/css">
	.st0{fill:#3C63FF;}
	.st1{fill:#F7602B;}
	.st2{fill:#00AD88;}
	.st3{fill:#FFFFFF;}
	.st4{fill:none;stroke:#FFFFFF;stroke-width:10;stroke-miterlimit:10;}
</style>
<g>
	<circle class="st0" cx="113" cy="90.6" r="64"/>
	<path class="st1" d="M48.8,92.7h64V26.6C76.8,26.6,47.7,56.4,48.8,92.7L48.8,92.7z"/>
	<path class="st2" d="M94.2,50.4c-1.2,0-2.2,1-2.2,2.2v50.9H58.9c-1.2,0-2.2,1-2.2,2.2c0,1.2,1,2.2,2.2,2.2h35.3
		c1.2,0,2.2-1,2.2-2.2v-53C96.4,51.4,95.4,50.4,94.2,50.4z"/>
	<path class="st3" d="M94.2,46c-1.2,0-2.2,1-2.2,2.2V99H58.9c-1.2,0-2.2,1-2.2,2.2c0,1.2,1,2.2,2.2,2.2h35.3c1.2,0,2.2-1,2.2-2.2
		v-53C96.4,47,95.4,46,94.2,46z"/>
</g>
<circle class="st4" cx="94.5" cy="99.3" r="64"/>
</svg>
