<?xml version="1.0" encoding="utf-8"?>
<!-- Generator: Adobe Illustrator 21.1.0, SVG Export Plug-In . SVG Version: 6.00 Build 0)  -->
<svg version="1.1" id="Calque_1" xmlns="http://www.w3.org/2000/svg" xmlns:xlink="http://www.w3.org/1999/xlink" x="0px" y="0px"
	 viewBox="0 0 200 200" style="enable-background:new 0 0 200 200;" xml:space="preserve">
<style type="text/css">
	.st0{fill:#FFE680;stroke:#FFFFFF;stroke-miterlimit:10;}
	.st1{fill:none;stroke:#FFFFFF;stroke-width:10;stroke-miterlimit:10;}
</style>
<g>
	<g>
		<path class="st0" d="M186.7,37c-1.4-1.4-3.4-1.7-5.2-1l-118,51.5c-1.8,0.8-2.9,2.6-2.8,4.6c0.1,2,1.5,3.6,3.4,4.2l49,14.3l14.3,49
			c0.6,1.9,2.2,3.2,4.2,3.4c0.1,0,0.2,0,0.3,0c1.9,0,3.5-1.1,4.3-2.8l51.5-118C188.5,40.4,188.1,38.4,186.7,37z"/>
	</g>
</g>
<g>
	<g>
		<path class="st1" d="M154.7,38c-1.4-1.4-3.4-1.7-5.2-1l-118,51.5c-1.8,0.8-2.9,2.6-2.8,4.6s1.5,3.6,3.4,4.2l49,14.3l14.3,49
			c0.6,1.9,2.2,3.2,4.2,3.4c0.1,0,0.2,0,0.3,0c1.9,0,3.5-1.1,4.3-2.8l51.5-118C156.5,41.4,156.1,39.4,154.7,38z"/>
	</g>
</g>
</svg>
