<?xml version="1.0" encoding="utf-8"?>
<!-- Generator: Adobe Illustrator 21.1.0, SVG Export Plug-In . SVG Version: 6.00 Build 0)  -->
<svg version="1.1" id="Calque_1" xmlns="http://www.w3.org/2000/svg" xmlns:xlink="http://www.w3.org/1999/xlink" x="0px" y="0px"
	 viewBox="0 0 400 400" style="enable-background:new 0 0 400 400;" xml:space="preserve">
<style type="text/css">
	.st0{fill:#FFE680;}
	.st1{fill:#3C63FF;}
	.st2{fill:#00AD88;}
	.st3{fill:#F7602B;}
	.st4{fill:#14130E;}
</style>
<path class="st0" d="M273.6,109.4h-166c-21.4,0-38.7-17.3-38.7-38.7V35c0-3.9,3.2-7.1,7.1-7.1H220c33.6,0,60.8,27.2,60.8,60.8v13.7
	C280.8,106.2,277.6,109.4,273.6,109.4z"/>
<g>
	<path class="st1" d="M320.3,331.4c-15.3,5.3-80.8,27.1-125.3,29.3c-4,0.2-7,3.5-7,7.4v5.4c0,4.1,3.3,7.4,7.4,7.4h152.1
		c4.4,0,7.8-3.7,7.4-8.1c-0.8-9.8-5.7-26.7-28.2-40.8C324.9,331,322.5,330.7,320.3,331.4z"/>
	<path class="st1" d="M330.8,108.7c0,52.3-42.4,94.7-94.7,94.7s-94.7-42.4-94.7-94.7c0-52.3,42.4-94.7,94.7-94.7
		S330.8,56.4,330.8,108.7z"/>
	<path class="st2" d="M254.2,156.5h-39.3c-3.9,0-7.4-2.6-8.3-6.3c-1.3-5.5,2.8-10.5,8.2-10.5h35.9L312,75.1c1.6-1.7,3.8-2.6,6.1-2.6
		h56.2c3.9,0,7.4,2.6,8.3,6.3c1.3,5.5-2.8,10.5-8.2,10.5h-52.8l-61.3,64.6C258.7,155.6,256.5,156.5,254.2,156.5z"/>
	<path class="st2" d="M180.3,143.7l28.6-20.9c3.3-2.4,8-0.1,8,4.1v41.8c0,4.1-4.7,6.5-8,4.1l-28.6-20.9
		C177.6,149.8,177.6,145.7,180.3,143.7z"/>
	<path class="st3" d="M374.3,150.9h-56.7c-2.3,0-4.4-0.9-6-2.6L251,84.4l-36.1,0c-3.9,0-7.4-2.6-8.3-6.3c-1.3-5.5,2.8-10.5,8.2-10.5
		h39.8c2.3,0,4.4,0.9,6,2.6l60.7,63.9l53,0c3.9,0,7.4,2.6,8.3,6.3C383.8,146,379.6,150.9,374.3,150.9z"/>
	<path class="st3" d="M180.3,79.7l28.6,20.9c3.3,2.4,8,0.1,8-4.1V54.7c0-4.1-4.7-6.5-8-4.1l-28.6,20.9
		C177.6,73.6,177.6,77.7,180.3,79.7z"/>
	<path d="M288,338.6c-3.3-2.1-7.3-2.5-10.9-1.3c-1.5,0.5-2.9,1-4.3,1.5l-14.6-21.6c-1.6-2.4-4.9-3-7.3-1.4c-2.4,1.6-3,4.9-1.4,7.3
		l12.9,19.2c-45.6,14.8-77.6,20.5-94.9,22.7l-30-52.2c-0.9-1.6-2.6-2.6-4.5-2.6l-41.8-0.4c-1.2,0-2.1-1-2.1-2.2v-17.7
		c0.1,0,0.2,0,0.3,0c9.6,0,28.7-1.4,40-11.8c5.9-5.5,9-12.5,9-21c0-2.7-1.9-5.1-4.6-5.4c-3.1-0.3-5.8,2.1-5.8,5.2
		c0,5.7-1.9,10.1-5.7,13.6c-4.8,4.4-12.7,7.3-23,8.5c-4,0.5-7.6,0.6-10.3,0.6v-25.7c0-2.9-2.4-5.3-5.3-5.3H58.5
		c-1.2,0-2.1-0.9-2.2-2.1c-2-53.7,13.5-83.1,20.2-93.2c0.9-1.3,1.9-2.6,3-4.1h26.2c3.6,36.2,26.5,66.8,58.2,81.2v30.4
		c0,5.4,3.5,10.3,8.7,12l50,16.7c1.3,0.4,2.6,0.6,3.9,0.6c0.5,0,0.9,0,1.4-0.1c0.3,0.8,0.7,1.5,1.2,2.2l7.6,11.2
		c1,1.5,2.7,2.3,4.4,2.3c1,0,2-0.3,2.9-0.9c2.4-1.6,3-4.9,1.4-7.3l-7.6-11.2c-0.2-0.3-0.3-0.8-0.2-1.2l9.6-55.8
		c7-3.2,13.7-7.3,19.9-12.2c2.3-1.8,2.7-5.1,0.9-7.4c-1.8-2.3-5.1-2.7-7.4-0.9c-15.9,12.5-35,19.1-55.3,19.1
		c-49.4,0-89.6-40.1-89.6-89.4c0-49.3,40.2-89.4,89.6-89.4c15.1,0,30,3.8,43.2,11c2.5,1.4,5.7,0.5,7.1-2.1c1.4-2.5,0.5-5.7-2.1-7.1
		c-14.7-8.1-31.4-12.3-48.2-12.3c-18.9,0-36.6,5.3-51.7,14.4H43.6c-7,0-12.7,5.7-12.7,12.7V103c0,21.8,15.5,40.1,36,44.5
		c-21.5,33-22.2,79.9-21.6,98.6c0.3,6.8,5.8,12.2,12.7,12.2h20.4v49.5c0,7,5.6,12.8,12.6,12.8l38.7,0.4l26.3,46.1
		c-1,0.1-1.9,0.1-2.5,0.2c-6.7,0.3-12,6-12,12.8v4.1c0,7,5.7,12.7,12.7,12.7h151.6c3.5,0,6.9-1.5,9.3-4.1c2.4-2.6,3.6-6.1,3.3-9.6
		C316.7,359.9,298.6,345.3,288,338.6z M235.6,234.2l-7.6,44.5c0,0,0,0,0,0c-0.1,0.6-0.5,1-0.8,1.1c-0.2,0.1-0.7,0.3-1.3,0.1
		L176,263.2c-0.9-0.3-1.5-1.1-1.5-2.1v-27.1c9.7,3.1,20,4.8,30.7,4.8C215.6,238.9,225.9,237.3,235.6,234.2z M41.4,102.8v-37
		c0-1.2,1-2.2,2.2-2.2h95.1c-20.6,18.2-33.7,44.7-33.9,74.2H76.5C57.1,137.9,41.4,122.2,41.4,102.8z M308,386.5
		c-0.2,0.3-0.8,0.7-1.6,0.7H154.3c-1.2,0-2.2-1-2.2-2.2v-5.4c0-1.2,0.9-2.1,2.1-2.2c44.5-2.2,108.3-23.2,126.7-29.6
		c0.6-0.2,1.3-0.1,1.9,0.2c9,5.6,24.3,17.9,25.8,36.8C308.6,385.7,308.2,386.2,308,386.5z"/>
	<path d="M102,195.7c-0.5,1.1-1.6,1.8-2.9,1.8c-1.2,0-2.3-0.7-2.9-1.8c-1.3-2.6-4.4-3.7-7-2.4c-2.6,1.3-3.7,4.4-2.4,7
		c2.3,4.7,7,7.6,12.3,7.6c5.3,0,10-2.9,12.3-7.6c1.3-2.6,0.2-5.7-2.4-7C106.5,192.1,103.3,193.1,102,195.7z"/>
	<path class="st4" d="M356.5,154h-50.9l-1.4-1.4c0.6-4.4,0.9-8.9,0.9-13.4c0-5.9-0.5-11.7-1.5-17.4l2-2.1l50.5,0
		c6.5,0,12.3-4.5,13.5-10.8c1.8-8.8-4.9-16.5-13.4-16.5h-56.5c0,0-3.8,0.3-5.5,1c-5.3-10.4-12.4-19.8-21.1-27.8
		c-2.1-2-5.4-1.8-7.4,0.3c-2,2.1-1.8,5.4,0.3,7.4c8.4,7.8,15.2,17,20,27.3l-15.4,16.3l-24.4-25.7c-2.5-2.7-6.1-4.2-9.8-4.3h-32.5
		v-6.6c0-3.9-2-7.6-5.5-9.4c-3.5-1.8-7.7-1.5-10.8,0.8l-28.5,20.8c-2.6,1.9-4.2,5-4.2,8.3s1.6,6.4,4.2,8.3l28.5,20.8
		c1.8,1.3,3.9,2,6,2c1.6,0,3.2-0.4,4.7-1.1c3.5-1.8,5.6-5.3,5.6-9.1v-7.3h26.5l21.3,22.4l-21.3,22.4h-26.5v-7.3c0,0-2.1-7.4-5.6-9.2
		c-3.5-1.8-7.6-1.4-10.7,0.9L159,164.3c-2.6,1.9-4.2,5-4.2,8.3c0,3.3,1.6,6.4,4.2,8.3l28.6,20.9c1.8,1.3,3.9,2,6.1,2
		c1.6,0,3.2-0.4,4.7-1.1c3.5-1.8,5.6-5.3,5.6-9.2v-7.3h32.5c3.7-0.1,7.3-1.6,9.8-4.3l24.4-25.7l16.9,17.8
		c-2.9,6.8-6.6,13.2-11.1,19.1c-1.8,2.3-1.3,5.6,1,7.4c1,0.7,2.1,1.1,3.2,1.1c1.6,0,3.1-0.7,4.2-2.1c4.5-6,8.4-12.4,11.5-19.2
		c1.2,0.3,3.6,0.3,3.6,0.3h56.7c7.3,0,13.3-6,13.3-13.3C369.8,160,363.8,154,356.5,154z M193.4,121l-28.1-20.5l28.1-20.5V121z
		 M193.4,193.1l-28.1-20.5l28.1-20.5V193.1z M294.7,138.9c0,1.1,0,2.2-0.1,3.2l-5.3-5.6l5-5.3C294.6,133.8,294.7,136.3,294.7,138.9z
		 M297.6,103.9c0.6-0.6,1.4-1,2.2-1h56.4c1.3,0,2.6,0.8,3,2.1c0.7,2.2-0.9,4.2-2.9,4.2h-53c-1.4,0-2.8,0.6-3.8,1.7l-17.5,19.1
		l-4.2-4.6L297.6,103.9z M238.5,174.8c-0.6,0.6-1.4,1-2.2,1h-32.4v-6.3h28.9c1.4,0,2.8-0.6,3.8-1.7l22.5-24.6l4.2,4.6L238.5,174.8z
		 M356.3,170.1h-57c-0.8,0-1.6-0.3-2.2-0.9l-60.7-63.9c-1-1-2.4-1.6-3.8-1.6h-28.8v-6.3h32.3c0.8,0,1.6,0.3,2.2,0.9l60.7,63.9
		c1,1,2.4,1.6,3.8,1.6h53.5c1.2,0,2.4,0.7,2.9,1.8C360.2,167.9,358.5,170.1,356.3,170.1z"/>
	<path d="M313.7,210.7h3.5c2.5,0,4.8-1.7,5.3-4.1c0.7-3.4-1.8-6.4-5.1-6.4h-3.4c-2.7,0-5.1,1.9-5.4,4.6
		C308.1,208,310.6,210.7,313.7,210.7z"/>
	<path d="M361,200.2l-29.5,0c-2.7,0-5.1,1.9-5.4,4.6c-0.4,3.2,2.1,5.9,5.2,5.9h29.5c2.5,0,4.8-1.7,5.3-4.1
		C366.8,203.3,364.3,200.2,361,200.2z"/>
	<path d="M361,217.7h-47.1c-2.7,0-5.1,1.9-5.4,4.6c-0.4,3.2,2.1,5.9,5.2,5.9h47.1c2.5,0,4.8-1.7,5.3-4.1
		C366.8,220.8,364.3,217.7,361,217.7z"/>
	<path d="M361,235.3l-47.1,0c-2.7,0-5.1,1.9-5.4,4.6c-0.4,3.2,2.1,5.9,5.2,5.9h47.1c2.5,0,4.8-1.7,5.3-4.1
		C366.8,238.3,364.3,235.3,361,235.3z"/>
</g>
</svg>
