<?xml version="1.0" encoding="utf-8"?>
<!-- Generator: Adobe Illustrator 21.1.0, SVG Export Plug-In . SVG Version: 6.00 Build 0)  -->
<svg version="1.1" id="Calque_1" xmlns="http://www.w3.org/2000/svg" xmlns:xlink="http://www.w3.org/1999/xlink" x="0px" y="0px"
	 viewBox="0 0 400 400" style="enable-background:new 0 0 400 400;" xml:space="preserve">
<style type="text/css">
	.st0{fill:#FECBAA;}
	.st1{fill:#FFAE85;}
	.st2{fill:#FEDFC5;}
	.st3{fill:#3C63FF;}
	.st4{fill:#FFE680;}
	.st5{fill:#FF8800;}
	.st6{fill:#00AD88;}
	.st7{fill:#F7602B;}
</style>
<g>
	<path class="st0" d="M302.9,380.5H162.7l-41.3-71.8l-46.8-0.5c-4.6,0-8.3-3.8-8.3-8.3v-61.5H38c-4.5,0-8.2-3.5-8.3-8
		c-0.7-19.6-0.1-70.7,22.6-106.4c0.4-0.6,0.7-1.1,1.1-1.6C60,112.3,71.4,103,77.5,95.6H248c3.7,9,6.1,18.7,7.2,28.7
		c1,9.3,0.7,18.9-0.9,28.8l-20.7,120.9c-0.3,2,0.1,4,1.2,5.6L302.9,380.5z"/>
	<path class="st1" d="M302.9,380.5h-19.3l-68.1-101c-1.1-1.6-1.5-3.6-1.2-5.6L235,153c1.6-9.8,1.8-19.5,0.9-28.7
		c-1-10.1-3.5-19.7-7.1-28.7H248c3.7,9,6.1,18.7,7.2,28.7c1,9.3,0.7,18.9-0.9,28.7l-20.7,120.9c-0.3,1.9,0.1,4,1.2,5.6L302.9,380.5z
		"/>
	<path class="st1" d="M255.7,124.4c-0.7,0.1-1.4,0.1-2.1,0.1H58.2c-2.2,0-4.3-0.1-6.4-0.4c0.4-0.6,0.7-1.1,1.1-1.7
		c6.7-10.1,18.2-19.5,24.4-27h171.2C252.1,104.6,254.6,114.3,255.7,124.4z"/>
	<path class="st2" d="M254.8,152.7L235,267.3c-0.8,4.6-5.6,7.5-10.1,6l-56.4-18.7c-3.4-1.1-5.7-4.3-5.7-7.9V141.4h-28.3
		c-2,0-3.9-0.7-5.3-1.9c-1.9-1.5-3.1-3.8-3.1-6.4V93.3h121.5C255.3,111.1,258.2,131.5,254.8,152.7z"/>
	<path class="st3" d="M286.2,339.2c-17.1,5.9-90.8,30.5-140.8,33c-4.4,0.2-7.9,3.9-7.9,8.3v6.1c0,4.6,3.7,8.4,8.4,8.4h171
		c4.9,0,8.7-4.2,8.3-9.1c-0.9-11-6.4-30-31.7-45.8C291.3,338.7,288.7,338.4,286.2,339.2z"/>
	<path class="st4" d="M252.9,115.4H58.3c-25,0-45.3-20.3-45.3-45.3V28.3c0-4.6,3.7-8.4,8.4-8.4h168.8c39.3,0,71.1,31.8,71.1,71.1v16
		C261.3,111.7,257.5,115.4,252.9,115.4z"/>
	<path class="st1" d="M128.4,241.9c0,9.8-3.5,18-10.3,24.2c-12.8,11.8-34.5,13.4-45.5,13.4c-3,0-5.2-0.1-6.2-0.2v-11.8
		c0.2,0,0.3,0,0.5,0c0.2,0,7.8,0.6,17.1-0.4c11.7-1.3,20.8-4.7,26.2-9.7c4.3-4,6.4-9.1,6.4-15.5c0-3.3,2.6-5.9,5.9-5.9
		C125.8,236,128.4,238.7,128.4,241.9z"/>
	<path class="st3" d="M309.6,110c0,58.8-47.7,106.5-106.5,106.5S96.6,168.8,96.6,110S144.3,3.5,203.1,3.5S309.6,51.2,309.6,110z"/>
	<path class="st3" d="M309.6,110c0,58.8-47.7,106.5-106.5,106.5c-58.8,0-106.5-47.7-106.5-106.5c0-3.1,0.1-6.1,0.4-9.1
		c4.6,54.5,50.3,97.4,106.1,97.4s101.5-42.8,106.1-97.4C309.4,103.9,309.6,106.9,309.6,110z"/>
	<path class="st5" d="M84,187.7c-5.9,0-11.2-3.3-13.8-8.6c-1.4-2.9-0.2-6.5,2.7-7.9c2.9-1.4,6.5-0.2,7.9,2.7c0.6,1.2,1.8,2,3.2,2
		s2.6-0.8,3.2-2c1.4-2.9,5-4.1,7.9-2.7c2.9,1.4,4.1,5,2.7,7.9C95.2,184.4,89.9,187.7,84,187.7z"/>
	<path class="st6" d="M238.3,156.7h-44.5c-5.1,0-9.4-4-9.5-9c-0.1-5.1,4.1-9.3,9.2-9.3h40.8l68.3-72c1.8-1.8,4.2-2.9,6.7-2.9l63.4,0
		c5.1,0,9.4,4,9.5,9c0.1,5.1-4.1,9.3-9.2,9.3h-59.8l-68.3,72C243.3,155.6,240.9,156.7,238.3,156.7z"/>
	<path class="st6" d="M154.4,143.3l32.2-23.5c3.8-2.7,9-0.1,9,4.6v47c0,4.6-5.3,7.3-9,4.6l-32.2-23.5
		C151.3,150.2,151.3,145.5,154.4,143.3z"/>
	<path class="st7" d="M373.1,151.3h-63.4c-2.6,0-5-1.1-6.8-2.9l-69-72.7h-40.1c-5.1,0-9.4-4-9.5-9c-0.1-5.1,4.1-9.3,9.2-9.3h44.4
		c2.6,0,5,1.1,6.8,2.9l69,72.7h59.1c5.1,0,9.4,4,9.5,9C382.4,147.1,378.2,151.3,373.1,151.3z"/>
	<path class="st7" d="M154.4,71.4l32.2,23.5c3.8,2.7,9,0.1,9-4.6v-47c0-4.6-5.3-7.3-9-4.6l-32.2,23.5
		C151.3,64.5,151.3,69.1,154.4,71.4z"/>
	<path class="st6" d="M329.1,190.3l-3.7,0c-2.9,0-5.6-2.1-5.9-5c-0.4-3.5,2.3-6.4,5.7-6.4h3.7c2.9,0,5.6,2.1,5.9,5
		C335.2,187.3,332.5,190.3,329.1,190.3z"/>
	<path class="st6" d="M377.7,190.3l-32.1,0c-3.2,0-5.9-2.4-6-5.6c-0.1-3.2,2.5-5.9,5.7-5.9h32.1c3.2,0,5.9,2.4,6,5.6
		C383.5,187.6,380.9,190.3,377.7,190.3z"/>
	<g>
		<path class="st7" d="M377.4,210.1h-51.4c-2.9,0-5.6-2.1-5.9-5c-0.4-3.5,2.3-6.4,5.7-6.4l51.3,0c3.2,0,5.9,2.4,6,5.6
			C383.2,207.5,380.7,210.1,377.4,210.1z"/>
		<path class="st7" d="M377.4,230h-51.4c-2.9,0-5.6-2.1-5.9-5c-0.4-3.5,2.3-6.4,5.7-6.4l51.3,0c3.2,0,5.9,2.4,6,5.6
			C383.2,227.4,380.7,230,377.4,230z"/>
	</g>
</g>
</svg>
