<?xml version="1.0" encoding="utf-8"?>
<!-- Generator: Adobe Illustrator 21.1.0, SVG Export Plug-In . SVG Version: 6.00 Build 0)  -->
<svg version="1.1" id="Calque_1" xmlns="http://www.w3.org/2000/svg" xmlns:xlink="http://www.w3.org/1999/xlink" x="0px" y="0px"
	 viewBox="0 0 1000 1000" style="enable-background:new 0 0 1000 1000;" xml:space="preserve">
<style type="text/css">
	.st0{fill:#3C63FF;}
	.st1{fill:#F7602B;}
	.st2{fill:#00AD88;}
	.st3{fill:#142433;}
	.st4{fill:none;stroke:#000000;stroke-width:10;stroke-miterlimit:10;}
	.st5{fill:#FFFFFF;}
</style>
<g>
	<g>
		<circle class="st0" cx="524.4" cy="471.3" r="170.1"/>
		<path class="st1" d="M354,476.8h170V301.4C428.3,301.4,351.1,380.4,354,476.8L354,476.8z"/>
		<path class="st2" d="M474.6,364.6c-3.3,0-5.8,2.7-5.8,5.8v135h-88c-3.3,0-5.8,2.7-5.8,5.8c0,3.3,2.7,5.8,5.8,5.8h93.9
			c3.3,0,5.8-2.7,5.8-5.8V370.5C480.5,367.3,477.9,364.6,474.6,364.6z"/>
		<path class="st3" d="M474.6,352.9c-3.3,0-5.8,2.7-5.8,5.8v135h-88c-3.3,0-5.8,2.7-5.8,5.8s2.7,5.8,5.8,5.8h93.9
			c3.3,0,5.8-2.7,5.8-5.8V358.7C480.5,355.5,477.9,352.9,474.6,352.9z"/>
	</g>
	<circle class="st4" cx="475.6" cy="494.5" r="170.1"/>
	<g>
		<circle class="st2" cx="613.6" cy="630.7" r="72.5"/>
		<path class="st5" d="M653.3,595.6c-2.7-1.9-6.5-1.2-8.4,1.5l-33.8,48.5L587.2,626c-2.6-2.1-6.3-1.7-8.5,0.9
			c-2.1,2.6-1.7,6.3,0.9,8.5l28.9,23.8c1.1,0.9,2.4,1.4,3.9,1.4c0.3,0,0.5,0,0.9-0.1c1.6-0.3,3.2-1.1,4.1-2.6l37.6-53.9
			C656.7,601.2,656,597.4,653.3,595.6z"/>
	</g>
</g>
</svg>
