<?xml version="1.0" encoding="utf-8"?>
<!-- Generator: Adobe Illustrator 21.1.0, SVG Export Plug-In . SVG Version: 6.00 Build 0)  -->
<svg version="1.1" id="Calque_1" xmlns="http://www.w3.org/2000/svg" xmlns:xlink="http://www.w3.org/1999/xlink" x="0px" y="0px"
	 viewBox="0 0 1000 1000" style="enable-background:new 0 0 1000 1000;" xml:space="preserve">
<style type="text/css">
	.st0{fill:#00AD88;}
	.st1{fill:#F7602B;}
	.st2{fill:#F4F4F4;}
	.st3{fill:#3C63FF;}
	.st4{fill:#37474F;}
	.st5{fill:#607D8B;}
</style>
<g>
	<g>
		<g transform="translate(1 1)">
			<path class="st0" d="M459.1,664.4h-34c-1.3,0-2.5-0.3-3.4-1l-97.9-69.1c-1.6-1.1-2.5-3-2.5-4.9v-14.6L459.1,664.4z"/>
			<path class="st1" d="M665.2,425.8v161.8c0,19.4-15.2,36-53.9,36h-78c-38.9,0-53.9-16.5-53.9-36V425.8c0-43.7,23.9-41.9,23.9-41.9
				s5.7-18,30-18h78c24.3,0,30,18,30,18S665.2,382.2,665.2,425.8z"/>
			<g>
				<path class="st2" d="M595.6,543.7l-2.6,7.9c-1,3.1-0.5,6.3,1.6,8.8s5.2,3.6,8.3,3.2c12-1.7,27.1-6.2,27.1-17.3
					c0-6.4-15.5-8.3-25-8.9C600.9,537.2,597,539.7,595.6,543.7z"/>
				<path class="st2" d="M505.5,543.7l2.6,7.9c1,3.1,0.5,6.3-1.6,8.8c-2.1,2.5-5.2,3.6-8.3,3.2c-12-1.7-27.1-6.2-27.1-17.3
					c0-6.4,15.5-8.3,25-8.9C500.3,537.2,504.2,539.7,505.5,543.7z"/>
			</g>
			<path class="st3" d="M626.7,425.8c-3.1,24.2-8.8,48-17,70.9c-2.8,7.8-10.1,13-18.5,13H510c-8.3,0-15.6-5.2-18.5-13
				c-8.3-23-14-46.7-17-70.9L626.7,425.8L626.7,425.8z"/>
			<path class="st4" d="M628.6,395.9c0,3.1-0.1,6.2-0.2,9.2c-0.1,2.2-0.2,4.3-0.3,6.4c-0.2,4.9-0.8,9.6-1.4,14.4H474.5
				c-0.6-4.7-1-9.5-1.4-14.4c-0.2-2.1-0.2-4.3-0.3-6.4c-0.1-3.1-0.2-6.2-0.2-9.2c0,0,5.7-18,30-18h95.9
				C622.9,377.9,628.6,395.9,628.6,395.9z"/>
			<g>
				<path class="st5" d="M610.6,395.9c0,3.1-0.1,6.2-0.2,9.2c-0.1,2.2-0.2,4.3-0.3,6.4c-0.2,4.9-0.8,9.6-1.4,14.4H474.5
					c-0.6-4.7-1-9.5-1.4-14.4c-0.2-2.1-0.2-4.3-0.3-6.4c-0.1-3.1-0.2-6.2-0.2-9.2c0,0,5.7-18,30-18h78
					C604.9,377.9,610.6,395.9,610.6,395.9z"/>
				<path class="st5" d="M532.6,509.7c0-9.9,8.1-18,18-18s18,8.1,18,18H532.6z"/>
			</g>
			<g>
				<path class="st3" d="M416,452.4v68.5c0,1-0.2,1.9-0.7,2.7l-17.3-4.8v-66l17-3.8C415.7,450.1,416.1,451.2,416,452.4z"/>
				<polygon class="st3" points="355.7,469.3 355.7,514.3 325.7,506 325.7,476 				"/>
				<polygon class="st3" points="398,453.5 398,519.6 352.7,513.1 352.7,468.1 				"/>
			</g>
		</g>
		<g>
			<path d="M606.4,532.4c-6.8-0.5-13.3,3.8-15.5,10.4l-2.6,7.9c-1.7,5-0.7,10.6,2.8,14.6c2.8,3.4,7.1,5.4,11.5,5.4
				c0.7,0,1.5-0.1,2.2-0.1c26.7-3.9,32.1-14.7,32.1-23.1C637.1,535.7,619.5,533.2,606.4,532.4z M603.1,558.7c-1,0.1-2.1-0.2-2.8-1
				s-1-2.1-0.7-3.1l2.6-7.9c0.5-1.4,1.8-2.3,3.3-2.2c6.7-0.1,13.2,1.1,19.4,3.8C623.9,555.2,608.1,557.9,603.1,558.7z"/>
			<path d="M512.2,542.7c-2.2-6.6-8.5-10.8-15.5-10.4c-13.2,0.8-30.7,3.3-30.7,14.9c0,8.4,5.6,19.4,32.3,23.1
				c0.7,0.1,1.5,0.1,2.2,0.1c4.4,0,8.7-1.9,11.5-5.4c3.4-4.1,4.4-9.6,2.8-14.6L512.2,542.7z M502.8,557.6c-0.7,0.8-1.7,1.3-2.8,1
				c-4.9-0.7-20.6-3.5-21.9-10.5c6.2-2.6,12.8-4,19.4-3.8c1.5-0.1,2.8,0.8,3.3,2.2l2.6,7.9C503.9,555.5,503.6,556.8,502.8,557.6z"/>
			<path d="M509.6,408.8h84c3.3,0,5.9-2.6,5.9-5.9c0-3.3-2.6-5.9-5.9-5.9h-84c-3.3,0-5.9,2.6-5.9,5.9
				C503.6,406.2,506.2,408.8,509.6,408.8z"/>
			<path d="M308.3,605.5l101.9,71.9c1,0.7,2.3,1.1,3.4,1.1h246c2.6,0,5-1.7,5.8-4.3c0.8-2.5-0.2-5.2-2.4-6.7L622,640.4
				c34.3-7.4,37.5-31.5,37.5-39.8V438.8c0-19.1-4.3-32.9-13.1-40.9c-3.5-3.4-8.1-5.7-12.9-6.6l-0.1-0.1c-0.3-0.7-0.8-1.4-1.4-2.2
				l-0.5-0.7c-1.4-1.9-2.8-3.8-4.4-5.4l-0.7-0.7c-2.2-1.9-4.7-3.6-7.2-5c-0.3-0.2-0.7-0.3-1.1-0.6c-1.6-0.8-3.2-1.4-4.9-1.9
				c-1.8-0.6-3.8-1-5.6-1.3c-0.5-0.1-1-0.1-1.6-0.2c-2.2-0.2-4.4-0.5-6.7-0.5h-13.1l75.9-42.7c2.4-1.4,3.5-4.1,2.8-6.7
				c-0.7-2.6-3.1-4.4-5.8-4.4H431.7c-1.4,0-2.6,0.5-3.8,1.4L308,416.1c-0.1,0.1-0.1,0.2-0.2,0.2c-0.2,0.2-0.6,0.7-0.8,1
				c-0.2,0.2-0.5,0.6-0.7,0.9c-0.1,0.3-0.2,0.7-0.3,1c-0.1,0.5-0.2,0.8-0.2,1.1c0,0.1-0.1,0.2-0.1,0.3v179.9
				C305.8,602.6,306.7,604.5,308.3,605.5z M460.3,666.6h-44.7l0,0l-97.8-69.1l2.1-16.2 M639.7,666.6H481.4l-163.6-99.4v-16.4
				c0.1,0.1,0.1,0.1,0.2,0.1l66.3,37.4l72.6,40.9c8.7,7.4,23,13.3,46.7,13.3h95.9c1.4,0,2.6-0.1,4-0.1L639.7,666.6z M380.8,427.4
				c-2.1,7.6-3.2,15.5-3.1,23.4v9.2l-30,6.7v-9.8c-0.1-6.5,1-13.1,3.4-19.1L380.8,427.4z M574.7,504.8c-2.6-10.6-12.2-18-23.1-18
				s-20.4,7.4-23.1,18H511c-5.8,0-10.8-3.6-12.8-9.1c-7.3-20.4-12.7-41.5-15.8-62.9h138.4c-3.2,21.4-8.5,42.5-15.8,62.9
				c-1.9,5.4-7.1,9-12.8,9.1H574.7L574.7,504.8z M562,504.8h-20.7c2.2-3.8,6.2-5.9,10.4-5.9C555.9,498.8,559.8,501,562,504.8z
				 M450.7,405.4c-0.6,1-1,1.9-1.6,3.1c-0.1,0.3-0.3,0.7-0.5,1c-0.7,1.5-1.1,3-1.7,4.4c-0.1,0.5-0.2,0.8-0.3,1.1
				c-0.3,1.1-0.7,2.5-1,3.8c-0.1,0.7-0.2,1.3-0.3,1.9c-0.2,1.1-0.5,2.3-0.7,3.5c-0.1,0.7-0.2,1.4-0.2,2.1c-0.1,1.4-0.2,2.6-0.5,4.1
				c-0.1,0.7-0.1,1.3-0.1,1.9c-0.1,2.1-0.2,4.2-0.2,6.4v161.8c0,0.8,0.1,1.8,0.1,3c0.1,1.7,0.2,3.3,0.7,4.9l-52.1-29.4
				c-1.8-6.7-2.6-13.6-2.6-20.5v-20.1l20.7,5.8c3.5,1,7.5,0.2,10.5-2.1c3.1-2.3,4.8-5.8,4.7-9.6v-68.6c0-3.6-1.6-7.1-4.4-9.3
				c-2.8-2.3-6.5-3.2-10.1-2.3l-21.3,4.8v-6.5c-0.5-9.8,1.6-19.6,5.8-28.5l56.9-19.5c-0.2,0.5-0.6,0.9-0.8,1.4
				C451.3,404.6,451,405,450.7,405.4z M349.6,555.2c-1.3-4.7-1.9-9.6-1.9-14.5v-13.8l30,8.3v23.5c0,4.3,0.2,8.5,0.8,12.8
				L349.6,555.2z M347.7,478.9l30-6.7v50.6l-30-8.3V478.9z M335.7,511.2l-18-5v-20.6l18-4V511.2z M413.7,532.8l-23.9-6.7v-56.5
				l23.9-5.4 M325.8,446.3l11.3-3.9c-1,4.7-1.5,9.6-1.4,14.4v12.4l-18,4v-15.6C317.8,452.5,321,448,325.8,446.3z M317.8,518.6l18,5
				v17.1c0,2.3,0.1,4.6,0.2,6.8l-12.2-6.8c-3.8-2.1-6.2-6.2-6.2-10.5L317.8,518.6L317.8,518.6z M593.6,630.6h-78v-23.9
				c0-3.3,2.6-5.9,5.9-5.9h66c3.3,0,5.9,2.6,5.9,5.9L593.6,630.6L593.6,630.6z M647.5,438.8v161.8c0,17.8-15.2,28.5-41.9,29.7v-23.8
				c0-9.9-8.1-18-18-18h-65.9c-9.9,0-18,8.1-18,18v23.9c-18.5,0-31.9-4-39.9-11.3c-1.1-1-2.2-2.1-3.1-3.4c-0.1-0.2-0.2-0.5-0.5-0.7
				c-0.8-1.1-1.5-2.3-2.1-3.5c-0.1-0.2-0.2-0.7-0.5-0.9c-0.6-1.4-1-2.8-1.4-4.3c-0.1-0.3-0.1-0.7-0.2-1c-0.2-1.6-0.5-3.3-0.5-5
				V438.8c0-19.3,4.9-28,9-31.9c0.5-0.5,1-0.9,1.6-1.4c0.2-0.2,0.6-0.3,0.8-0.6c0.2-0.1,0.5-0.3,0.7-0.5l0.1-0.1
				c0.1,2.4,0.2,4.7,0.3,7.1c0,0.2,0,0.5,0,0.7c0.3,5.2,0.8,10.4,1.4,15.3v0.1c3.1,24.6,8.9,48.9,17.3,72.3c3.6,10.1,13.3,17,24,17
				h81.4c10.8,0,20.4-6.8,24-17c8.4-23.4,14.2-47.5,17.3-72.3v-0.1c0.7-5,1-10.1,1.4-15.3c0-0.2,0-0.5,0-0.7
				c0.1-2.3,0.2-4.7,0.3-7.1c1.1,0.7,2.3,1.5,3.2,2.4C642.7,410.9,647.5,419.5,647.5,438.8z M605.7,385.5c0.7,0.1,1,0.2,1.6,0.5
				l0.2,0.1c1.1,0.2,2.3,0.6,3.3,0.9c0.7,0.2,1.1,0.5,1.7,0.8c0.8,0.3,1.6,0.8,2.4,1.1c0.5,0.2,1,0.7,1.4,0.9
				c0.7,0.5,1.3,0.9,1.8,1.4c0.3,0.3,0.8,0.7,1.1,1c0.5,0.5,0.9,0.9,1.3,1.4c0.2,0.3,0.6,0.7,0.8,0.9c0.3,0.5,0.7,0.9,0.9,1.3
				c0.1,0.2,0.3,0.6,0.5,0.8c0.2,0.5,0.3,0.7,0.5,1c0.1,0.1,0.2,0.3,0.2,0.5c0,3.4-0.1,6.8-0.2,10.4c0,0.7-0.1,1.3-0.1,1.9
				c-0.2,3.5-0.5,7.1-0.8,10.6H480.8c-0.3-3.5-0.7-7.2-0.8-10.7c-0.1-0.7-0.1-1.1-0.1-1.8c-0.1-3.4-0.2-6.8-0.2-10.3
				c1.1-2.4,2.7-4.6,4.7-6.4c0.5-0.5,0.8-0.8,1.4-1.1l0.1-0.1c0.9-0.7,1.8-1.3,2.8-1.8c0.1-0.1,0.2-0.1,0.5-0.2
				c1.1-0.6,2.3-1.1,3.4-1.6l0.7-0.2c1.4-0.5,2.8-0.8,4.3-1l0.8-0.1c1.7-0.2,3.5-0.5,5.4-0.5h95.9
				C601.6,384.9,603.7,385,605.7,385.5z M433.8,330.9h202.9L562,372.8h-58.4c-2.3,0-4.4,0.1-6.7,0.5c-0.5,0.1-1,0.1-1.6,0.2
				c-3.6,0.6-7.2,1.7-10.5,3.2c-0.3,0.1-0.7,0.3-1,0.6c-2.3,1.1-4.3,2.6-6.3,4.2l-133,45.7l-22.6,7.8c-1.5,0.5-2.8,1.1-4.2,1.9
				v-13.2L433.8,330.9z"/>
		</g>
	</g>
</g>
</svg>
