<?xml version="1.0" encoding="utf-8"?>
<!-- Generator: Adobe Illustrator 21.1.0, SVG Export Plug-In . SVG Version: 6.00 Build 0)  -->
<svg version="1.1" id="Calque_1" xmlns="http://www.w3.org/2000/svg" xmlns:xlink="http://www.w3.org/1999/xlink" x="0px" y="0px"
	 viewBox="0 0 1000 1000" style="enable-background:new 0 0 1000 1000;" xml:space="preserve">
<style type="text/css">
	.st0{fill:#3F51B5;}
	.st1{fill:#FF9801;}
	.st2{fill:#F4F4F4;}
	.st3{fill:#0377BC;}
	.st4{fill:#37474F;}
	.st5{fill:#607D8B;}
	.st6{fill:#02A9F4;}
</style>
<g>
	<g>
		<g transform="translate(1 1)">
			<path class="st0" d="M429.4,781.1H381c-1.8,0-3.5-0.5-4.9-1.5l-139.3-98.3c-2.2-1.6-3.6-4.2-3.6-7v-20.8L429.4,781.1z"/>
			<path class="st1" d="M722.7,441.6V672c0,27.6-21.5,51.2-76.8,51.2H535c-55.3,0-76.8-23.6-76.8-51.2V441.6
				c0-62.2,34.1-59.7,34.1-59.7s8.1-25.6,42.7-25.6h110.9c34.6,0,42.7,25.6,42.7,25.6S722.7,379.4,722.7,441.6z"/>
			<g>
				<path class="st2" d="M623.7,609.3l-3.8,11.2c-1.4,4.3-0.6,9,2.3,12.5c2.9,3.5,7.4,5.2,11.8,4.6c17.1-2.5,38.6-8.8,38.6-24.6
					c0-9.1-22.1-11.9-35.6-12.7C631.1,600,625.6,603.6,623.7,609.3z"/>
				<path class="st2" d="M495.4,609.3l3.8,11.2c1.4,4.3,0.6,9-2.3,12.5c-2.9,3.5-7.4,5.2-11.8,4.6c-17.1-2.5-38.6-8.8-38.6-24.6
					c0-9.1,22.1-11.9,35.6-12.7C488,600,493.5,603.6,495.4,609.3z"/>
			</g>
			<path class="st3" d="M667.9,441.6c-4.3,34.4-12.5,68.3-24.2,100.9c-4,11.1-14.5,18.5-26.3,18.5H501.8c-11.8,0-22.3-7.4-26.3-18.5
				c-11.8-32.7-19.9-66.5-24.2-100.9H667.9z"/>
			<path class="st4" d="M670.5,398.9c0,4.4-0.1,8.8-0.3,13.1c-0.2,3.1-0.3,6.1-0.5,9.1c-0.4,6.9-1.1,13.7-1.9,20.4H451.3
				c-0.8-6.7-1.5-13.5-1.9-20.4c-0.3-3-0.3-6.1-0.5-9.1c-0.2-4.4-0.3-8.7-0.3-13.1c0,0,8.1-25.6,42.7-25.6h136.5
				C662.4,373.3,670.5,398.9,670.5,398.9z"/>
			<g>
				<path class="st5" d="M644.9,398.9c0,4.4-0.1,8.8-0.3,13.1c-0.2,3.1-0.3,6.1-0.5,9.1c-0.4,6.9-1.1,13.7-1.9,20.4h-191
					c-0.8-6.7-1.5-13.5-1.9-20.4c-0.3-3-0.3-6.1-0.5-9.1c-0.2-4.4-0.3-8.7-0.3-13.1c0,0,8.1-25.6,42.7-25.6h110.9
					C636.8,373.3,644.9,398.9,644.9,398.9z"/>
				<path class="st5" d="M534,561c0-14.1,11.5-25.6,25.6-25.6s25.6,11.5,25.6,25.6H534z"/>
			</g>
			<g>
				<path class="st6" d="M368,479.4v97.5c0,1.4-0.3,2.7-0.9,3.9l-24.7-6.8v-94l24.2-5.4C367.6,476.1,368.1,477.7,368,479.4z"/>
				<polygon class="st6" points="282.2,503.4 282.2,567.4 239.6,555.6 239.6,512.9 				"/>
				<polygon class="st6" points="342.4,481 342.4,575 278,565.8 278,501.8 				"/>
			</g>
		</g>
		<g>
			<path d="M638.6,592.8c-9.8-0.7-18.9,5.4-22,14.7l-3.8,11.2c-2.4,7.2-0.9,15.1,4,20.8c4.1,4.9,10.1,7.7,16.4,7.7
				c1,0,2.1-0.1,3.1-0.2c37.9-5.5,45.8-21,45.8-33C682.2,597.5,657.3,594,638.6,592.8z M634,630.2c-1.5,0.2-3-0.3-4-1.5
				c-1.1-1.2-1.4-2.9-0.9-4.4l3.8-11.2c0.7-2,2.6-3.3,4.7-3.1c9.5-0.1,18.8,1.7,27.5,5.4C663.4,625.2,641,629.2,634,630.2z"/>
			<path d="M504.5,607.6c-3.1-9.4-12.1-15.4-22-14.7c-18.8,1.2-43.6,4.7-43.6,21.2c0,12,8,27.5,45.9,33c1,0.1,2.1,0.2,3.1,0.2
				c6.3,0,12.3-2.8,16.4-7.7c4.9-5.8,6.4-13.7,4-20.8L504.5,607.6z M491.2,628.7c-1,1.2-2.5,1.8-4,1.5c-7-1-29.4-5.1-31.1-14.9
				c8.7-3.7,18.1-5.6,27.5-5.4c2.1-0.2,4,1.1,4.7,3.1l3.7,11.2C492.6,625.8,492.3,627.5,491.2,628.7z"/>
			<path d="M500.8,417h119.5c4.7,0,8.5-3.8,8.5-8.5c0-4.7-3.8-8.5-8.5-8.5H500.8c-4.7,0-8.5,3.8-8.5,8.5S496.1,417,500.8,417z"/>
			<path d="M214.3,697l145.1,102.4c1.4,1,3.2,1.6,4.9,1.6h349.9c3.8,0,7.1-2.5,8.2-6.1c1.1-3.6-0.3-7.5-3.4-9.6l-58.1-38.7
				c48.8-10.5,53.4-44.7,53.4-56.6V459.6c0-27.2-6.2-46.9-18.6-58.3c-5.1-4.9-11.5-8.1-18.4-9.4l-0.1-0.1c-0.5-1-1.2-2-1.9-3.1
				l-0.6-0.9c-1.9-2.7-4-5.3-6.4-7.6l-1-0.9c-3.1-2.8-6.6-5.2-10.3-7.1c-0.5-0.3-1-0.5-1.6-0.8c-2.2-1.1-4.5-2-6.9-2.7
				c-2.6-0.8-5.3-1.4-8-1.8c-0.7-0.1-1.4-0.2-2.2-0.3c-3.1-0.4-6.3-0.7-9.5-0.7h-18.6l108.1-60.8c3.4-1.9,5.1-5.8,4.1-9.6
				c-1-3.8-4.4-6.4-8.3-6.4H389.9c-1.9,0-3.8,0.7-5.3,1.9L213.9,427.4c-0.1,0.1-0.2,0.3-0.3,0.4c-0.4,0.4-0.8,0.9-1.1,1.4
				c-0.3,0.4-0.6,0.8-0.9,1.3c-0.2,0.5-0.4,1-0.5,1.5c-0.2,0.6-0.3,1.1-0.4,1.7c0,0.2-0.1,0.3-0.1,0.5v256
				C210.7,692.8,212,695.4,214.3,697z M430.7,783.9H367v0l-139.2-98.3l3-23 M686,783.9H460.6L227.8,642.5v-23.3
				c0.1,0.1,0.2,0.1,0.3,0.2l94.4,53.2l103.3,58.2c12.4,10.6,32.8,18.9,66.5,18.9h136.5c2,0,3.7-0.2,5.6-0.2L686,783.9z
				 M317.5,443.4c-3,10.8-4.5,22-4.4,33.3v13.1l-42.7,9.5v-14c-0.1-9.3,1.5-18.6,4.8-27.3L317.5,443.4z M593.5,553.5
				c-3.8-15.1-17.4-25.6-32.9-25.6c-15.5,0-29.1,10.5-32.9,25.6h-24.9c-8.2,0-15.4-5.2-18.2-12.9c-10.4-29-18-59-22.5-89.5h197
				c-4.5,30.5-12.1,60.5-22.5,89.5c-2.8,7.7-10,12.8-18.2,12.9L593.5,553.5L593.5,553.5z M575.3,553.5h-29.5
				c3.1-5.3,8.7-8.5,14.8-8.5S572.3,548.2,575.3,553.5z M417.1,412.1c-0.8,1.4-1.5,2.8-2.2,4.3c-0.2,0.5-0.5,1-0.7,1.5
				c-0.9,2.1-1.7,4.2-2.4,6.4c-0.2,0.6-0.3,1.2-0.5,1.7c-0.5,1.7-1,3.5-1.4,5.3c-0.2,0.9-0.4,1.8-0.5,2.7c-0.3,1.7-0.6,3.3-0.9,5.1
				c-0.1,1-0.3,2-0.4,3c-0.2,1.9-0.4,3.8-0.6,5.8c-0.1,0.9-0.2,1.8-0.2,2.7c-0.2,2.9-0.3,6-0.3,9.1V690c0,1.2,0.1,2.6,0.2,4.2
				c0.1,2.4,0.4,4.7,0.9,7l-74.2-41.8c-2.6-9.5-3.8-19.3-3.7-29.2v-28.6l29.6,8.2c5.1,1.5,10.7,0.4,14.9-2.9
				c4.3-3.2,6.8-8.2,6.7-13.6v-97.6c0-5.2-2.3-10.1-6.4-13.3c-4-3.2-9.3-4.5-14.4-3.3l-30.4,6.8v-9.3c-0.6-14,2.2-27.9,8.3-40.5
				l80.9-27.8c-0.4,0.6-0.8,1.3-1.2,1.9C417.8,411,417.4,411.5,417.1,412.1z M273.2,625.3c-1.8-6.7-2.8-13.7-2.8-20.6v-19.6
				l42.7,11.9v33.4c0,6.1,0.4,12.1,1.2,18.1L273.2,625.3z M270.4,516.7l42.7-9.5v72l-42.7-11.9V516.7z M253.4,562.6l-25.6-7.1v-29.4
				l25.6-5.7V562.6z M364.3,593.5l-34.1-9.5c0,0,0-80.5,0-80.5l34.1-7.6 M239.3,470.3l16.1-5.5c-1.4,6.7-2.1,13.6-2,20.5V503
				l-25.6,5.7v-22.3C227.8,479.1,232.4,472.7,239.3,470.3z M227.8,573.2l25.6,7.1v24.3c0,3.3,0.2,6.5,0.4,9.7l-17.4-9.8
				c-5.4-3-8.7-8.7-8.7-14.9V573.2z M620.3,732.7H509.4v-34.1c0-4.7,3.8-8.5,8.5-8.5h93.9c4.7,0,8.5,3.8,8.5,8.5L620.3,732.7
				L620.3,732.7z M697.1,459.6V690c0,25.3-21.6,40.5-59.7,42.4v-33.9c0-14.1-11.5-25.6-25.6-25.6h-93.9c-14.1,0-25.6,11.5-25.6,25.6
				v34.1c-26.2,0-45.5-5.7-56.8-16.1c-1.6-1.5-3.1-3-4.4-4.8c-0.2-0.3-0.4-0.6-0.6-0.9c-1.1-1.6-2.1-3.2-2.9-5
				c-0.2-0.4-0.4-0.9-0.6-1.3c-0.8-2-1.5-4-1.9-6.1c-0.1-0.5-0.2-1-0.3-1.5c-0.4-2.3-0.7-4.7-0.7-7.1V459.6
				c0-27.4,6.9-39.9,12.8-45.5c0.7-0.7,1.4-1.3,2.2-1.9c0.4-0.3,0.8-0.5,1.2-0.8c0.4-0.2,0.6-0.5,0.9-0.6l0.2-0.1
				c0.1,3.4,0.3,6.7,0.5,10c0,0.3,0,0.6,0,0.9c0.5,7.4,1.1,14.7,2,21.8v0.1c4.4,35.1,12.7,69.6,24.7,102.8
				c5.2,14.5,18.9,24.1,34.3,24.1h115.6c15.4,0,29-9.7,34.3-24.1c12-33.3,20.2-67.7,24.7-102.8v-0.2c0.9-7.1,1.5-14.4,2-21.8
				c0-0.3,0-0.6,0-0.9c0.2-3.3,0.4-6.7,0.5-10c1.6,0.9,3.2,2.1,4.5,3.4C690.2,419.8,697.1,432.2,697.1,459.6z M637.7,383.6
				c0.9,0.1,1.5,0.4,2.3,0.6l0.3,0.1c1.6,0.3,3.2,0.8,4.7,1.3c0.9,0.3,1.6,0.7,2.4,1.1c1.2,0.5,2.3,1.1,3.4,1.7
				c0.7,0.4,1.4,0.9,2,1.3c0.9,0.6,1.8,1.3,2.6,2c0.5,0.5,1.1,0.9,1.6,1.4c0.7,0.7,1.3,1.3,1.8,2c0.4,0.5,0.8,0.9,1.1,1.3
				c0.5,0.7,0.9,1.3,1.3,1.8c0.2,0.4,0.5,0.8,0.7,1.1c0.3,0.6,0.5,1,0.7,1.4c0.1,0.2,0.3,0.5,0.4,0.7c0,4.8-0.2,9.7-0.4,14.7
				c0,0.9-0.1,1.8-0.1,2.7c-0.3,5-0.7,10-1.2,15.1H459.9c-0.5-5.1-0.9-10.2-1.2-15.2c-0.1-0.9-0.1-1.7-0.1-2.6
				c-0.2-4.9-0.4-9.8-0.4-14.6c1.6-3.4,3.9-6.5,6.7-9.1c0.6-0.6,1.2-1.2,1.9-1.7l0.2-0.2c1.3-1,2.6-1.8,4-2.6
				c0.2-0.1,0.4-0.2,0.6-0.4c1.6-0.8,3.2-1.6,4.9-2.2l1-0.4c2-0.6,4-1.1,6.1-1.5l1.1-0.1c2.5-0.4,5.1-0.6,7.7-0.6h136.5
				C631.8,382.8,634.8,383.1,637.7,383.6z M392.9,306h288.7l-106.2,59.7h-83.1c-3.2,0-6.3,0.2-9.5,0.7c-0.7,0.1-1.5,0.2-2.2,0.3
				c-5.2,0.8-10.2,2.4-14.9,4.6c-0.5,0.2-1,0.5-1.5,0.8c-3.2,1.7-6.2,3.7-9,6l-189.3,65l-32.2,11.1c-2.1,0.7-4.1,1.7-6,2.8v-18.8
				L392.9,306z"/>
		</g>
	</g>
	<g>
	</g>
	<g>
	</g>
	<g>
	</g>
	<g>
	</g>
	<g>
	</g>
	<g>
	</g>
	<g>
	</g>
	<g>
	</g>
	<g>
	</g>
	<g>
	</g>
	<g>
	</g>
	<g>
	</g>
	<g>
	</g>
	<g>
	</g>
	<g>
	</g>
</g>
</svg>
