<?xml version="1.0" encoding="utf-8"?>
<!-- Generator: Adobe Illustrator 21.1.0, SVG Export Plug-In . SVG Version: 6.00 Build 0)  -->
<svg version="1.1" id="Calque_1" xmlns="http://www.w3.org/2000/svg" xmlns:xlink="http://www.w3.org/1999/xlink" x="0px" y="0px"
	 viewBox="0 0 400 400" style="enable-background:new 0 0 400 400;" xml:space="preserve">
<style type="text/css">
	.st0{fill:#00AD88;}
	.st1{fill:#F7602B;}
	.st2{fill:#F4F4F4;}
	.st3{fill:#3C63FF;}
	.st4{fill:#37474F;}
	.st5{fill:#607D8B;}
</style>
<g>
	<g>
		<g transform="translate(1 1)">
			<path class="st0" d="M173.1,365.4h-34c-1.3,0-2.5-0.3-3.4-1l-97.9-69.1c-1.6-1.1-2.5-3-2.5-4.9v-14.6L173.1,365.4z"/>
			<path class="st1" d="M379.2,126.8v161.8c0,19.4-15.2,36-53.9,36h-78c-38.9,0-53.9-16.5-53.9-36V126.8c0-43.7,23.9-41.9,23.9-41.9
				s5.7-18,30-18h78c24.3,0,30,18,30,18S379.2,83.2,379.2,126.8z"/>
			<g>
				<path class="st2" d="M309.6,244.7l-2.6,7.9c-1,3.1-0.5,6.3,1.6,8.8c2.1,2.5,5.2,3.6,8.3,3.2c12-1.7,27.1-6.2,27.1-17.3
					c0-6.4-15.5-8.3-25-8.9C314.9,238.2,311,240.7,309.6,244.7z"/>
				<path class="st2" d="M219.5,244.7l2.6,7.9c1,3.1,0.5,6.3-1.6,8.8s-5.2,3.6-8.3,3.2c-12-1.7-27.1-6.2-27.1-17.3
					c0-6.4,15.5-8.3,25-8.9C214.3,238.2,218.2,240.7,219.5,244.7z"/>
			</g>
			<path class="st3" d="M340.7,126.8c-3.1,24.2-8.8,48-17,70.9c-2.8,7.8-10.1,13-18.5,13H224c-8.3,0-15.6-5.2-18.5-13
				c-8.3-23-14-46.7-17-70.9L340.7,126.8L340.7,126.8z"/>
			<path class="st4" d="M342.6,96.9c0,3.1-0.1,6.2-0.2,9.2c-0.1,2.2-0.2,4.3-0.3,6.4c-0.2,4.9-0.8,9.6-1.4,14.4H188.5
				c-0.6-4.7-1-9.5-1.4-14.4c-0.2-2.1-0.2-4.3-0.3-6.4c-0.1-3.1-0.2-6.2-0.2-9.2c0,0,5.7-18,30-18h95.9
				C336.9,78.9,342.6,96.9,342.6,96.9z"/>
			<g>
				<path class="st5" d="M324.6,96.9c0,3.1-0.1,6.2-0.2,9.2c-0.1,2.2-0.2,4.3-0.3,6.4c-0.2,4.9-0.8,9.6-1.4,14.4H188.5
					c-0.6-4.7-1-9.5-1.4-14.4c-0.2-2.1-0.2-4.3-0.3-6.4c-0.1-3.1-0.2-6.2-0.2-9.2c0,0,5.7-18,30-18h78
					C318.9,78.9,324.6,96.9,324.6,96.9z"/>
				<path class="st5" d="M246.6,210.7c0-9.9,8.1-18,18-18c9.9,0,18,8.1,18,18H246.6z"/>
			</g>
			<g>
				<path class="st3" d="M130,153.4v68.5c0,1-0.2,1.9-0.7,2.7l-17.3-4.8v-66l17-3.8C129.7,151.1,130.1,152.2,130,153.4z"/>
				<polygon class="st3" points="69.7,170.3 69.7,215.3 39.7,207 39.7,177 				"/>
				<polygon class="st3" points="112,154.5 112,220.6 66.7,214.1 66.7,169.1 				"/>
			</g>
		</g>
		<g>
			<path d="M320.4,233.4c-6.8-0.5-13.3,3.8-15.5,10.4l-2.6,7.9c-1.7,5-0.7,10.6,2.8,14.6c2.8,3.4,7.1,5.4,11.5,5.4
				c0.7,0,1.5-0.1,2.2-0.1c26.7-3.9,32.1-14.7,32.1-23.1C351.1,236.7,333.5,234.2,320.4,233.4z M317.1,259.7c-1,0.1-2.1-0.2-2.8-1
				c-0.8-0.8-1-2.1-0.7-3.1l2.6-7.9c0.5-1.4,1.8-2.3,3.3-2.2c6.7-0.1,13.2,1.1,19.4,3.8C337.9,256.2,322.1,258.9,317.1,259.7z"/>
			<path d="M226.2,243.7c-2.2-6.6-8.5-10.8-15.5-10.4c-13.2,0.8-30.7,3.3-30.7,14.9c0,8.4,5.6,19.4,32.3,23.1
				c0.7,0.1,1.5,0.1,2.2,0.1c4.4,0,8.7-1.9,11.5-5.4c3.4-4.1,4.4-9.6,2.8-14.6L226.2,243.7z M216.8,258.6c-0.7,0.8-1.7,1.3-2.8,1
				c-4.9-0.7-20.6-3.5-21.9-10.5c6.2-2.6,12.8-4,19.4-3.8c1.5-0.1,2.8,0.8,3.3,2.2l2.6,7.9C217.9,256.5,217.6,257.8,216.8,258.6z"/>
			<path d="M223.6,109.8h84c3.3,0,5.9-2.6,5.9-5.9c0-3.3-2.6-5.9-5.9-5.9h-84c-3.3,0-5.9,2.6-5.9,5.9S220.2,109.8,223.6,109.8z"/>
			<path d="M22.3,306.5l101.9,71.9c1,0.7,2.3,1.1,3.4,1.1h246c2.6,0,5-1.7,5.8-4.3c0.8-2.5-0.2-5.2-2.4-6.7L336,341.4
				c34.3-7.4,37.5-31.5,37.5-39.8V139.8c0-19.1-4.3-32.9-13.1-40.9c-3.5-3.4-8.1-5.7-12.9-6.6l-0.1-0.1c-0.3-0.7-0.8-1.4-1.4-2.2
				l-0.5-0.7c-1.4-1.9-2.8-3.8-4.4-5.4l-0.7-0.7c-2.2-1.9-4.7-3.6-7.2-5c-0.3-0.2-0.7-0.3-1.1-0.6c-1.6-0.8-3.2-1.4-4.9-1.9
				c-1.8-0.6-3.8-1-5.6-1.3c-0.5-0.1-1-0.1-1.6-0.2c-2.2-0.2-4.4-0.5-6.7-0.5h-13.1l75.9-42.7c2.4-1.4,3.5-4.1,2.8-6.7
				c-0.7-2.6-3.1-4.4-5.8-4.4H145.7c-1.4,0-2.6,0.5-3.8,1.4L22,117.1c-0.1,0.1-0.1,0.2-0.2,0.2c-0.2,0.2-0.6,0.7-0.8,1
				c-0.2,0.2-0.5,0.6-0.7,0.9c-0.1,0.3-0.2,0.7-0.3,1c-0.1,0.5-0.2,0.8-0.2,1.1c0,0.1-0.1,0.2-0.1,0.3v179.9
				C19.8,303.6,20.7,305.5,22.3,306.5z M174.3,367.6h-44.7l0,0l-97.8-69.1l2.1-16.2 M353.7,367.6H195.4L31.8,268.2v-16.4
				C32,252,32,252,32.1,252l66.3,37.4l72.6,40.9c8.7,7.4,23,13.3,46.7,13.3h95.9c1.4,0,2.6-0.1,4-0.1L353.7,367.6z M94.8,128.4
				c-2.1,7.6-3.2,15.5-3.1,23.4v9.2l-30,6.7v-9.8c-0.1-6.5,1-13.1,3.4-19.1L94.8,128.4z M288.7,205.8c-2.6-10.6-12.2-18-23.1-18
				c-10.9,0-20.4,7.4-23.1,18H225c-5.8,0-10.8-3.6-12.8-9.1c-7.3-20.4-12.7-41.5-15.8-62.9h138.4c-3.2,21.4-8.5,42.5-15.8,62.9
				c-1.9,5.4-7.1,9-12.8,9.1H288.7L288.7,205.8z M276,205.8h-20.7c2.2-3.8,6.2-5.9,10.4-5.9C269.9,199.8,273.8,202,276,205.8z
				 M164.7,106.4c-0.6,1-1,1.9-1.6,3.1c-0.1,0.3-0.3,0.7-0.5,1c-0.7,1.5-1.1,3-1.7,4.4c-0.1,0.5-0.2,0.8-0.3,1.1
				c-0.3,1.1-0.7,2.5-1,3.8c-0.1,0.7-0.2,1.3-0.3,1.9c-0.2,1.1-0.5,2.3-0.7,3.5c-0.1,0.7-0.2,1.4-0.2,2.1c-0.1,1.4-0.2,2.6-0.5,4.1
				c-0.1,0.7-0.1,1.3-0.1,1.9c-0.1,2.1-0.2,4.2-0.2,6.4v161.8c0,0.8,0.1,1.8,0.1,3c0.1,1.7,0.2,3.3,0.7,4.9l-52.1-29.4
				c-1.8-6.7-2.6-13.6-2.6-20.5v-20.1l20.7,5.8c3.5,1,7.5,0.2,10.5-2.1c3.1-2.3,4.8-5.8,4.7-9.6v-68.6c0-3.6-1.6-7.1-4.4-9.3
				c-2.8-2.3-6.5-3.2-10.1-2.3l-21.3,4.8v-6.5c-0.5-9.8,1.6-19.6,5.8-28.5l56.9-19.5c-0.2,0.5-0.6,0.9-0.8,1.4
				C165.3,105.6,165,106,164.7,106.4z M63.6,256.2c-1.3-4.7-1.9-9.6-1.9-14.5v-13.8l30,8.3v23.5c0,4.3,0.2,8.5,0.8,12.8L63.6,256.2z
				 M61.7,179.9l30-6.7v50.6l-30-8.3V179.9z M49.7,212.2l-18-5v-20.6l18-4V212.2z M127.7,233.8l-23.9-6.7v-56.5l23.9-5.4
				 M39.8,147.3l11.3-3.9c-1,4.7-1.5,9.6-1.4,14.4v12.4l-18,4v-15.6C31.8,153.5,35,149,39.8,147.3z M31.8,219.6l18,5v17.1
				c0,2.3,0.1,4.6,0.2,6.8l-12.2-6.8c-3.8-2.1-6.2-6.2-6.2-10.5L31.8,219.6L31.8,219.6z M307.6,331.6h-78v-23.9
				c0-3.3,2.6-5.9,5.9-5.9h66c3.3,0,5.9,2.6,5.9,5.9L307.6,331.6L307.6,331.6z M361.5,139.8v161.8c0,17.8-15.2,28.5-41.9,29.7v-23.8
				c0-9.9-8.1-18-18-18h-65.9c-9.9,0-18,8.1-18,18v23.9c-18.5,0-31.9-4-39.9-11.3c-1.1-1-2.2-2.1-3.1-3.4c-0.1-0.2-0.2-0.5-0.5-0.7
				c-0.8-1.1-1.5-2.3-2.1-3.5c-0.1-0.2-0.2-0.7-0.5-0.9c-0.6-1.4-1-2.8-1.4-4.3c-0.1-0.3-0.1-0.7-0.2-1c-0.2-1.6-0.5-3.3-0.5-5
				V139.8c0-19.3,4.9-28,9-31.9c0.5-0.5,1-0.9,1.6-1.4c0.2-0.2,0.6-0.3,0.8-0.6c0.2-0.1,0.5-0.3,0.7-0.5l0.1-0.1
				c0.1,2.4,0.2,4.7,0.3,7.1c0,0.2,0,0.5,0,0.7c0.3,5.2,0.8,10.4,1.4,15.3v0.1c3.1,24.6,8.9,48.9,17.3,72.3c3.6,10.1,13.3,17,24,17
				h81.4c10.8,0,20.4-6.8,24-17c8.4-23.4,14.2-47.5,17.3-72.3v-0.1c0.7-5,1-10.1,1.4-15.3c0-0.2,0-0.5,0-0.7
				c0.1-2.3,0.2-4.7,0.3-7.1c1.1,0.7,2.3,1.5,3.2,2.4C356.7,111.9,361.5,120.5,361.5,139.8z M319.7,86.5c0.7,0.1,1,0.2,1.6,0.5
				l0.2,0.1c1.1,0.2,2.3,0.6,3.3,0.9c0.7,0.2,1.1,0.5,1.7,0.8c0.8,0.3,1.6,0.8,2.4,1.1c0.5,0.2,1,0.7,1.4,0.9
				c0.7,0.5,1.3,0.9,1.8,1.4c0.3,0.3,0.8,0.7,1.1,1c0.5,0.5,0.9,0.9,1.3,1.4c0.2,0.3,0.6,0.7,0.8,0.9c0.3,0.5,0.7,0.9,0.9,1.3
				c0.1,0.2,0.3,0.6,0.5,0.8c0.2,0.5,0.3,0.7,0.5,1c0.1,0.1,0.2,0.3,0.2,0.5c0,3.4-0.1,6.8-0.2,10.4c0,0.7-0.1,1.3-0.1,1.9
				c-0.2,3.5-0.5,7.1-0.8,10.6H194.8c-0.3-3.5-0.7-7.2-0.8-10.7c-0.1-0.7-0.1-1.1-0.1-1.8c-0.1-3.4-0.2-6.8-0.2-10.3
				c1.1-2.4,2.7-4.6,4.7-6.4c0.5-0.5,0.8-0.8,1.4-1.1l0.1-0.1c0.9-0.7,1.8-1.3,2.8-1.8c0.1-0.1,0.2-0.1,0.5-0.2
				c1.1-0.6,2.3-1.1,3.4-1.6l0.7-0.2c1.4-0.5,2.8-0.8,4.3-1l0.8-0.1c1.7-0.2,3.5-0.5,5.4-0.5h95.9C315.6,85.9,317.7,86,319.7,86.5z
				 M147.8,31.9h202.9L276,73.8h-58.4c-2.3,0-4.4,0.1-6.7,0.5c-0.5,0.1-1,0.1-1.6,0.2c-3.6,0.6-7.2,1.7-10.5,3.2
				c-0.3,0.1-0.7,0.3-1,0.6c-2.3,1.1-4.3,2.6-6.3,4.2l-133,45.7L36,135.9c-1.5,0.5-2.8,1.1-4.2,1.9v-13.2L147.8,31.9z"/>
		</g>
	</g>
</g>
</svg>
