<?xml version="1.0" encoding="utf-8"?>
<!-- Generator: Adobe Illustrator 21.1.0, SVG Export Plug-In . SVG Version: 6.00 Build 0)  -->
<svg version="1.1" id="Calque_1" xmlns="http://www.w3.org/2000/svg" xmlns:xlink="http://www.w3.org/1999/xlink" x="0px" y="0px"
	 viewBox="0 0 400 400" style="enable-background:new 0 0 400 400;" xml:space="preserve">
<style type="text/css">
	.st0{fill:#3C63FF;}
	.st1{fill:#7D7D7D;}
	.st2{fill:#00AD88;}
</style>
<g>
	<path class="st0" d="M136.5,42.1v134.5H303V42.1H136.5z M214.9,85.7c2.2-0.2,4.1,0.3,5.8,1.4c0.3-0.2,0.8-0.4,1.3-0.5
		c5.4-1,11.4-1.5,16.4,1.4c2.9,1.7,2.2,5.1,0.2,6.7c4.5,3.4,7.3,7.3,2.6,11.1c-4.8,3.9-11.5,1.9-15.6-1.9
		c-2.8-2.6-6.2-10.6-10.6-10.2C209.8,94.1,209.9,86.1,214.9,85.7z M193.8,90.7c1-2,3.8-2.5,5.4-1.4c1.2,0.7,1.8,1.8,1.8,3
		c1,0.2,2,0.9,2.6,1.8c1.7,2.5,3.5,4.6,4.5,7.4c0.9,2.5-1.4,5-3.8,5c-4.2,0.1-8.2,0.6-12.3-0.5c-1.5-0.4-3.1-2.2-3-3.8
		C189.7,97.8,191.9,94.6,193.8,90.7z M153.5,100.2c2.8-6.3,7.6-12.8,14.6-14.5c2-0.5,3.5,0.5,4.3,1.8c2.6-1.6,5.4-3,8.6-3.5
		c4.2-0.7,6.4,3.5,3.9,6.7c-5,6.3-12.9,8.5-18.7,13.6c-1.7,1.4-3.7,1.3-5.1,0.2c-1,0.6-2.1,1-3.1,1.4
		C154.4,107.5,152.2,103,153.5,100.2z M177.7,155.2c-10.1-11-15.7-25.1-24.5-37c-1.8-2.5,0.6-6,3.4-6h6.6c1.9-2.7,7.3-1.9,7.3,2.3
		c0,5.9,4,11.4,6.7,16.4c1.4,2.6,2.6,5.1,3.5,7.8c1.2,3.8,1.7,7.8,3.2,11.6C185.5,154.2,181,158.9,177.7,155.2z M193.3,158.9
		c-2-7.4-2.6-15.1-5-22.5c-2.2-6.6-6.1-12.6-8-19.5c-0.7-2.6,1.3-5,3.8-5c8.8-0.4,17.6-1.1,26.3,0.1c1.6-3.8,8.2-3.5,7.7,1.2
		c-1,8.2-1.3,16.7-3.8,24.7c-2.8,8.7-9,14.6-13.8,22C198.8,162.7,194.3,162.3,193.3,158.9z M244.3,116.5
		c-8.7,13.4-15.6,27.9-26.9,39.4c-2.8,2.8-7.8-0.1-6.7-3.9c1.9-6.5,4-13.2,7.3-19.1c2.9-5.1,7.3-10.6,7.6-16.6
		c0.2-3.3,3.5-4.5,5.8-3.5c2.7-0.9,5.5-1.6,8.4-2C242.9,110.2,246.4,113.3,244.3,116.5z"/>
	<path class="st0" d="M157.3,351.9L80.4,275l-12.8-12.8l-32,32l96.1,96.1l32-32L157.3,351.9z"/>
	<path class="st1" d="M115.7,191.8H13.2v25.6h347.9h1.4h22.2v-25.6H282.1H115.7z"/>
	<path class="st2" d="M184.5,3.7c0,21.2,17.2,38.4,38.4,38.4C222.9,20.9,205.7,3.7,184.5,3.7z"/>
	<path class="st2" d="M260.5,3.7c-21.2,0-38.4,17.2-38.4,38.4C243.3,42.1,260.5,24.9,260.5,3.7z"/>
	<path d="M384.6,185.4h-96.1V57.3c0-3.5-2.9-6.4-6.4-6.4h-51.9c8.6-8.4,13.5-19.9,13.5-32c0-3.5-2.9-6.4-6.4-6.4
		c-15.8,0-30.3,8.3-38.4,21.9c-8.1-13.5-22.7-21.9-38.4-21.9c-3.5,0-6.4,2.9-6.4,6.4c0,12.1,4.9,23.6,13.5,32h-51.9
		c-3.5,0-6.4,2.9-6.4,6.4v128.1H13.2c-3.5,0-6.4,2.9-6.4,6.4v25.6c0,3.5,2.9,6.4,6.4,6.4h210.3l-38.4,12.8H90
		c-1.7,0-3.4,0.6-4.6,1.8L58,266l-8.2-8.2c-2.5-2.5-6.6-2.5-9,0l-32,32c-2.5,2.5-2.5,6.6,0,9l96.1,96.1c2.5,2.5,6.6,2.5,9,0l32-32
		c2.5-2.5,2.5-6.6,0-9l-1-1l37-26.4h126c1.6,0,3.1-0.6,4.3-1.7l69.6-63.8c10.5-9.6,12.3-25.5,4.3-37.2c2.9-0.6,5-3.2,5-6.1v-25.6
		C391,188.3,388.1,185.4,384.6,185.4L384.6,185.4z M230.1,26.1c-2.8,11.9-12.1,21.2-24,24C208.9,38.2,218.2,28.9,230.1,26.1z
		 M191.7,50.1c-11.9-2.8-21.2-12.1-24-24C179.6,28.9,188.9,38.2,191.7,50.1z M122.1,63.7h153.7v121.7h-68.8l54.7-73
		c1.7-2.2,1.7-5.4,0-7.7l-19.2-25.6c-1.2-1.6-3.1-2.6-5.1-2.6h-76.8c-2,0-3.9,1-5.1,2.6l-19.2,25.6c-1.7,2.2-1.7,5.4,0,7.7l54.7,73
		h-68.8V63.7z M215.4,114.9l-16.5,45.3l-16.5-45.3H215.4z M188.7,102.1L198.9,92l10.2,10.2H188.7z M229,114.9h14.7L215.1,153
		L229,114.9z M227.2,102.1l-12.8-12.8h19.8l9.6,12.8H227.2z M170.6,102.1h-16.6l9.6-12.8h19.8L170.6,102.1z M168.8,114.9l13.8,38.1
		l-28.6-38.1H168.8z M19.6,198.2h358.6V211H19.6V198.2z M335.8,223.8l-43.2,38.4h-22.7c12.6-6.6,17.4-22.2,10.7-34.7
		c-0.7-1.3-1.4-2.6-2.4-3.7H335.8z M109.3,381.2l-87-87l23-23l87,87L109.3,381.2z M373.1,251.3l-67.8,62.1H179.7
		c-1.4,0-2.6,0.4-3.7,1.2l-40.4,28.9L67.1,275l25.6-25.6h93.4c0.7,0,1.4-0.1,2-0.3l65.5-21.9c6.8-2.2,14.1,1.4,16.4,8.2
		c2.2,6.8-1.4,14.1-8.2,16.4c-0.2,0.1-0.5,0.2-0.7,0.2l-37.5,10.2h-18.3V275h89.6c1.6,0,3-0.6,4.2-1.6l51.3-45.6
		c2.9-2.6,6.6-4,10.5-4h1.4c8.7,0,15.8,7,15.8,15.8C378.3,244.1,376.4,248.3,373.1,251.3L373.1,251.3z"/>
	<path d="M34.3,292.4l9-9l19.2,19.2l-9,9L34.3,292.4z"/>
	<path d="M307.8,38.1h12.8v12.8h-12.8V38.1z"/>
	<path d="M320.6,25.3h12.8v12.8h-12.8V25.3z"/>
	<path d="M333.4,38.1h12.8v12.8h-12.8V38.1z"/>
	<path d="M320.6,50.9h12.8v12.8h-12.8V50.9z"/>
	<path d="M378.2,18.9H391v12.8h-12.8V18.9z"/>
	<path d="M327,89.3h12.8v12.8H327V89.3z"/>
	<path d="M64.4,82.9h12.8v12.8H64.4V82.9z"/>
	<path d="M64.4,108.5h12.8v12.8H64.4V108.5z"/>
	<path d="M77.2,95.7H90v12.8H77.2V95.7z"/>
	<path d="M51.6,95.7h12.8v12.8H51.6V95.7z"/>
	<path d="M6.8,50.9h12.8v12.8H6.8V50.9z"/>
	<path d="M64.4,18.9h12.8v12.8H64.4V18.9z"/>
</g>
</svg>
