<?xml version="1.0" encoding="utf-8"?>
<!-- Generator: Adobe Illustrator 21.1.0, SVG Export Plug-In . SVG Version: 6.00 Build 0)  -->
<svg version="1.1" id="Calque_1" xmlns="http://www.w3.org/2000/svg" xmlns:xlink="http://www.w3.org/1999/xlink" x="0px" y="0px"
	 viewBox="0 0 1000 1000" style="enable-background:new 0 0 1000 1000;" xml:space="preserve">
<style type="text/css">
	.st0{fill:#3C63FF;}
	.st1{fill:#7D7D7D;}
	.st2{fill:#00AD88;}
</style>
<g>
	<path class="st0" d="M432.1,334.6v141.8h175.5V334.6H432.1z M514.8,380.5c2.3-0.3,4.3,0.3,6.2,1.4c0.3-0.3,0.8-0.4,1.4-0.5
		c5.7-1.1,12.1-1.6,17.3,1.5c3,1.8,2.3,5.4,0.2,7.1c4.7,3.5,7.7,7.7,2.7,11.7c-5.1,4.1-12.2,2-16.5-2c-3-2.8-6.5-11.2-11.2-10.7
		C509.4,389.4,509.5,381,514.8,380.5z M492.5,385.8c1-2.1,4-2.6,5.7-1.5c1.3,0.8,1.9,1.9,1.9,3.1c1.1,0.3,2.1,0.9,2.8,1.9
		c1.8,2.6,3.7,4.8,4.7,7.8c0.9,2.6-1.4,5.3-4,5.3c-4.4,0.1-8.7,0.6-13-0.5c-1.6-0.4-3.3-2.3-3.1-4
		C488.2,393.3,490.6,389.9,492.5,385.8z M450.1,395.8c3-6.7,8-13.5,15.4-15.3c2.1-0.5,3.7,0.5,4.6,1.9c2.8-1.7,5.7-3.1,9.1-3.7
		c4.4-0.8,6.8,3.7,4.1,7.1c-5.2,6.7-13.6,8.9-19.7,14.3c-1.8,1.5-3.9,1.4-5.4,0.3c-1.1,0.6-2.2,1.1-3.3,1.5
		C451,403.5,448.7,398.8,450.1,395.8z M475.5,453.8c-10.6-11.6-16.5-26.4-25.8-39c-1.9-2.6,0.7-6.3,3.6-6.3h6.9c2-2.9,7.7-2,7.7,2.4
		c0,6.2,4.2,12,7.1,17.3c1.4,2.7,2.8,5.4,3.7,8.3c1.3,4,1.8,8.3,3.4,12.2C483.8,452.8,479,457.7,475.5,453.8z M492,457.7
		c-2.1-7.8-2.7-15.9-5.2-23.7c-2.4-7-6.4-13.3-8.4-20.5c-0.8-2.7,1.4-5.2,4-5.3c9.3-0.4,18.6-1.2,27.8,0.1c1.7-4,8.7-3.7,8.1,1.3
		c-1,8.7-1.3,17.6-4,26c-3,9.2-9.5,15.4-14.5,23.2C497.8,461.7,493,461.3,492,457.7z M545.7,413c-9.2,14.1-16.5,29.4-28.4,41.5
		c-3,3-8.3-0.1-7.1-4.1c2-6.8,4.2-13.9,7.7-20.2c3-5.4,7.7-11.1,8-17.5c0.2-3.5,3.7-4.7,6.2-3.7c2.9-0.9,5.8-1.7,8.9-2.1
		C544.3,406.4,548,409.6,545.7,413z"/>
	<path class="st0" d="M454,661.1l-81-81l-13.5-13.5l-33.8,33.8L427,701.6l33.8-33.8L454,661.1z"/>
	<path class="st1" d="M410.1,492.3h-108v27h366.7h1.4h23.4v-27h-108H410.1z"/>
	<path class="st2" d="M482.7,294.1c0,22.4,18.1,40.5,40.5,40.5C523.2,312.2,505.1,294.1,482.7,294.1z"/>
	<path class="st2" d="M562.9,294.1c-22.4,0-40.5,18.1-40.5,40.5C544.7,334.6,562.9,316.4,562.9,294.1z"/>
	<path d="M693.6,485.6H592.4v-135c0-3.7-3-6.8-6.8-6.8h-54.8c9.1-8.9,14.3-21,14.3-33.8c0-3.7-3-6.8-6.8-6.8c-16.6,0-32,8.8-40.5,23
		c-8.5-14.3-23.9-23-40.5-23c-3.7,0-6.8,3-6.8,6.8c0,12.7,5.1,24.9,14.3,33.8h-54.8c-3.7,0-6.8,3-6.8,6.8v135H302.1
		c-3.7,0-6.8,3-6.8,6.8v27c0,3.7,3,6.8,6.8,6.8h221.7l-40.5,13.5H383.1c-1.8,0-3.5,0.7-4.8,1.9l-28.9,29l-8.7-8.7
		c-2.6-2.6-6.9-2.6-9.5,0l-33.8,33.8c-2.6,2.6-2.6,6.9,0,9.5l101.3,101.3c2.6,2.6,6.9,2.6,9.5,0l33.8-33.8c2.6-2.6,2.6-6.9,0-9.5
		l-1.1-1.1l39-27.8h132.8c1.7,0,3.3-0.7,4.6-1.8l73.4-67.2c11.1-10.1,13-26.8,4.6-39.2c3-0.7,5.2-3.4,5.2-6.4v-27
		C700.4,488.6,697.4,485.6,693.6,485.6L693.6,485.6z M530.8,317.7c-3,12.6-12.7,22.4-25.3,25.3C508.4,330.4,518.2,320.6,530.8,317.7
		z M490.3,343c-12.6-3-22.4-12.7-25.3-25.3C477.6,320.6,487.4,330.4,490.3,343z M416.9,357.3h162v128.3h-72.6l57.7-77
		c1.8-2.4,1.8-5.7,0-8.1l-20.3-27c-1.3-1.7-3.3-2.7-5.4-2.7h-81c-2.1,0-4.1,1-5.4,2.7l-20.3,27c-1.8,2.4-1.8,5.7,0,8.1l57.7,77
		h-72.6V357.3z M515.3,411.3l-17.4,47.8l-17.4-47.8H515.3z M487.2,397.8l10.7-10.7l10.7,10.7H487.2z M529.6,411.3h15.5L515,451.5
		L529.6,411.3z M527.7,397.8l-13.5-13.5H535l10.1,13.5H527.7z M468.1,397.8h-17.5l10.1-13.5h20.8L468.1,397.8z M466.2,411.3
		l14.6,40.2l-30.1-40.2H466.2z M308.9,499.1h378v13.5h-378V499.1z M642.2,526.1l-45.6,40.5h-24c13.2-7,18.3-23.4,11.3-36.6
		c-0.8-1.3-1.5-2.7-2.5-3.9H642.2z M403.4,692l-91.7-91.7l24.2-24.2l91.7,91.7L403.4,692z M681.5,555.1L610,620.6H477.6
		c-1.4,0-2.8,0.4-3.9,1.3l-42.6,30.5l-72.2-72.2l27-27h98.5c0.8,0,1.4-0.1,2.1-0.3l69-23c7.2-2.4,14.8,1.4,17.3,8.6
		c2.4,7.2-1.4,14.8-8.6,17.3c-0.3,0.1-0.5,0.2-0.8,0.3L524,566.6h-19.3v13.5h94.5c1.7,0,3.2-0.6,4.5-1.7l54.1-48.1
		c3-2.7,7-4.2,11.1-4.2h1.4c9.2,0,16.7,7.4,16.7,16.6C687,547.4,685,551.9,681.5,555.1L681.5,555.1z"/>
	<path d="M324.4,598.4l9.5-9.5l20.2,20.2l-9.5,9.5L324.4,598.4z"/>
	<path d="M612.6,330.3h13.5v13.5h-13.5V330.3z"/>
	<path d="M626.1,316.8h13.5v13.5h-13.5V316.8z"/>
	<path d="M639.6,330.3h13.5v13.5h-13.5V330.3z"/>
	<path d="M626.1,343.8h13.5v13.5h-13.5V343.8z"/>
	<path d="M686.9,310.1h13.5v13.5h-13.5V310.1z"/>
	<path d="M632.9,384.3h13.5v13.5h-13.5V384.3z"/>
	<path d="M356.1,377.6h13.5v13.5h-13.5V377.6z"/>
	<path d="M356.1,404.6h13.5v13.5h-13.5V404.6z"/>
	<path d="M369.6,391.1h13.5v13.5h-13.5V391.1z"/>
	<path d="M342.6,391.1h13.5v13.5h-13.5V391.1z"/>
	<path d="M295.4,343.8h13.5v13.5h-13.5V343.8z"/>
	<path d="M356.1,310.1h13.5v13.5h-13.5V310.1z"/>
</g>
</svg>
